<svg xmlns="http://www.w3.org/2000/svg" xmlns:xlink="http://www.w3.org/1999/xlink" style="display:none">

  <!-- Verified Icon -->
  <symbol id='location' viewBox="0 0 64 64"><path fill="#231f20" d="M32 0C18.746 0 8 10.746 8 24c0 5.219 1.711 10.008 4.555 13.93.051.094.059.199.117.289l16 24a4 4 0 0 0 6.656 0l16-24c.059-.09.066-.195.117-.289C54.289 34.008 56 29.219 56 24 56 10.746 45.254 0 32 0m0 32a8 8 0 1 1 0-16 8 8 0 0 1 0 16"/></symbol>
   <!-- logo de anica  -->
  <symbol id='anica-logo'
            viewBox="0 0 992.13 425.2"
            ><defs
              ><style>
                .cls-4 { fill: var(--logo-color); }
              </style></defs
            ><path
              d="M754.38 255.12h-31.47l-19.07-33.9-19.07 33.9h-31.6l19.56-34.79 15.31-27.2 15.73-27.98 15.81 28.09 15.23 27.09z"
              style="fill:#f15a24"></path><path
              d="m703.84 221.22-19.07 33.9h-31.6l19.56-34.79 15.31-27.2 15.73-27.98 15.81 28.09"
              style="fill:#650e34"></path><path
              d="M238.09 258.75v-38.57h30.13l-21.7 38.57z"
              style="fill:#3ea530"></path><path
              d="M276.66 220.18v38.57h-30.14l21.7-38.57z"
              style="fill:#67c2ec"></path><path
              d="m703.77 112.76-51.14 90.91-9.37 16.65-.87 1.55a73 73 0 0 1-6.38 9.34c-11.1 13.85-27.13 23.6-45.42 26.58-3.87.63-7.86.97-11.91.97-5.35 0-10.56-.57-15.59-1.66-16.76-3.61-31.39-12.96-41.75-25.88a73.06 73.06 0 0 1-13.8-27.54 73.6 73.6 0 0 1-2.31-18.36c0-40.56 32.88-73.44 73.44-73.44 20.95 0 39.86 8.78 53.24 22.86l-14.53 25.82c-8.16-12.73-22.44-21.17-38.69-21.17-25.36 0-45.93 20.57-45.93 45.93 0 6.53 1.36 12.73 3.82 18.36 6.94 15.92 22.66 27.14 41.03 27.56.36 0 .71.01 1.08.01.56 0 1.13-.01 1.69-.03 15.74-.57 29.46-9.06 37.3-21.61.74-1.18 1.42-2.4 2.05-3.65l1.28-2.28 25.78-45.83 25.86-45.98 15.31-27.2 15.73-27.97 15.8 28.09 15.23 27.09 51.64 91.8 15.49 27.54 15.49 27.54 10.33 18.36 15.49 27.54H148.93l15.49-27.54 10.33-18.36 15.49-27.54 15.49-27.54 37.87-67.32 13.77-24.48 13.77 24.48 37.87 67.32 15.49 27.54 15.49 27.54h-27.54l-15.49-27.54-15.49-27.54-24.1-42.84-24.1 42.84-15.49 27.54-15.49 27.54-10.33 18.36h604.26l-10.32-18.36-15.49-27.54-15.49-27.54-51.14-90.91Z"
              class="cls-4"></path><path
              d="M580.4 231.21c-.56.02-1.13.03-1.69.03-.36 0-.72 0-1.08-.01v-.02zM619.75 205.95a43 43 0 0 1-2.05 3.65zM468.52 111.87h27.54v146.88h-27.54zM459.34 111.87v146.88H431.8l-15.49-27.54-15.49-27.54-24.1-42.84v97.92h-27.54V111.87h27.54l51.64 91.8 3.44 6.12v-97.92zM148.93 364.93l3.77-8.53c3.27 1.93 7.64 3.17 11.46 3.17 3.32 0 4.51-.69 4.51-1.88 0-4.36-19.19-.84-19.19-13.79 0-6.45 5.41-11.7 16.17-11.7 4.66 0 9.47.99 13.09 3.03l-3.52 8.48c-3.42-1.74-6.65-2.58-9.67-2.58-3.42 0-4.51.99-4.51 2.18 0 4.17 19.19.69 19.19 13.49 0 6.35-5.41 11.7-16.17 11.7-5.8 0-11.66-1.44-15.13-3.57M182.31 350.35c0-10.51 8.28-18.15 19.59-18.15s19.59 7.64 19.59 18.15-8.28 18.15-19.59 18.15-19.59-7.64-19.59-18.15m27.38 0c0-5.41-3.47-8.68-7.79-8.68s-7.79 3.27-7.79 8.68 3.47 8.68 7.79 8.68 7.79-3.27 7.79-8.68M225.75 332.99h11.7v25.64h15.67v9.08h-27.38v-34.72ZM255.81 352.09V333h11.7v18.75c0 5.31 2.03 7.29 5.31 7.29s5.31-1.98 5.31-7.29V333h11.51v19.09c0 10.42-6.25 16.42-16.91 16.42s-16.91-6-16.91-16.42ZM293.6 350.35c0-10.66 8.18-18.15 19.34-18.15 6.8 0 12.15 2.48 15.57 6.94l-7.39 6.6c-2.03-2.58-4.46-4.07-7.59-4.07-4.86 0-8.13 3.37-8.13 8.68s3.27 8.68 8.13 8.68c3.12 0 5.55-1.49 7.59-4.07l7.39 6.6c-3.42 4.46-8.78 6.94-15.57 6.94-11.16 0-19.34-7.49-19.34-18.15M331.88 332.99h11.7v34.72h-11.7zM347.85 350.35c0-10.51 8.28-18.15 19.59-18.15s19.59 7.64 19.59 18.15-8.28 18.15-19.59 18.15-19.59-7.64-19.59-18.15m27.38 0c0-5.41-3.47-8.68-7.79-8.68s-7.79 3.27-7.79 8.68 3.47 8.68 7.79 8.68 7.79-3.27 7.79-8.68M425.52 332.99v34.72h-9.62l-13.19-15.77v15.77H391.3v-34.72h9.62l13.19 15.77v-15.77zM460.03 358.88v8.83h-28.86v-34.72h28.22v8.83h-16.71v4.07h14.68v8.43h-14.68v4.56h17.36ZM462.36 364.93l3.77-8.53c3.27 1.93 7.64 3.17 11.46 3.17 3.32 0 4.51-.69 4.51-1.88 0-4.36-19.19-.84-19.19-13.79 0-6.45 5.41-11.7 16.17-11.7 4.66 0 9.47.99 13.09 3.03l-3.52 8.48c-3.42-1.74-6.65-2.58-9.67-2.58-3.42 0-4.51.99-4.51 2.18 0 4.17 19.19.69 19.19 13.49 0 6.35-5.41 11.7-16.17 11.7-5.8 0-11.66-1.44-15.13-3.57M512.01 332.99h11.7v34.72h-11.7zM563.59 332.99v34.72h-9.62l-13.19-15.77v15.77h-11.41v-34.72h9.62l13.19 15.77v-15.77zM576.78 342.07h-10.17v-9.08h32.04v9.08h-10.17v25.64h-11.7zM630.54 358.88v8.83h-28.86v-34.72h28.22v8.83h-16.71v4.07h14.68v8.43h-14.68v4.56h17.36ZM658.01 349.41h10.17v14.68c-4.22 2.88-10.02 4.41-15.13 4.41-11.21 0-19.39-7.49-19.39-18.15s8.18-18.15 19.64-18.15c6.84 0 12.35 2.38 15.87 6.7l-7.49 6.6c-2.18-2.53-4.71-3.82-7.79-3.82-5.16 0-8.43 3.32-8.43 8.68s3.27 8.68 8.28 8.68c1.44 0 2.83-.25 4.27-.84v-8.78ZM688.06 358.98h-3.17v8.73h-11.7v-34.72h16.71c9.67 0 15.82 5.06 15.82 13.09 0 5.01-2.38 8.78-6.55 10.91l7.29 10.71h-12.5l-5.9-8.73Zm1.1-16.96h-4.27v8.13h4.27c3.22 0 4.76-1.54 4.76-4.07s-1.54-4.07-4.76-4.07Z"
              class="cls-4"></path><path
              d="M733.79 361.66H720.6l-2.33 6.05h-11.9l15.18-34.72h11.51l15.18 34.72h-12.1l-2.33-6.05Zm-3.22-8.43-3.37-8.73-3.37 8.73zM750.11 332.99h11.7v25.64h15.67v9.08H750.1v-34.72ZM809.57 358.88v8.83h-28.86v-34.72h28.22v8.83h-16.71v4.07h14.68v8.43h-14.68v4.56h17.36ZM811.9 364.93l3.77-8.53c3.27 1.93 7.64 3.17 11.46 3.17 3.32 0 4.51-.69 4.51-1.88 0-4.36-19.19-.84-19.19-13.79 0-6.45 5.41-11.7 16.17-11.7 4.66 0 9.47.99 13.09 3.03l-3.52 8.48c-3.42-1.74-6.65-2.58-9.67-2.58-3.42 0-4.51.99-4.51 2.18 0 4.17 19.19.69 19.19 13.49 0 6.35-5.41 11.7-16.17 11.7-5.8 0-11.66-1.44-15.13-3.57"
              class="cls-4"></path></symbol
          >
<!-- seccion de redes sociales -->
<!-- facebook -->
<symbol id='fb' viewBox="0 0 16 16">
   <path
    d="M16 8.049c0-4.446-3.582-8.05-8-8.05C3.58 0-.002 3.603-.002 8.05c0 4.017 2.926 7.347 6.75 7.951v-5.625h-2.03V8.05H6.75V6.275c0-2.017 1.195-3.131 3.022-3.131.876 0 1.791.157 1.791.157v1.98h-1.009c-.993 0-1.303.621-1.303 1.258v1.51h2.218l-.354 2.326H9.25V16c3.824-.604 6.75-3.934 6.75-7.951z"
  ></path>
</symbol>

    <!-- Instagram Icon -->
  <symbol id="instagram" viewBox="0 0 256 256">
    <path fill='currentColor' d="M128 23.064c34.177 0 38.225.13 51.722.745 12.48.57 19.258 2.655 23.769 4.408 5.974 2.322 10.238 5.096 14.717 9.575 4.48 4.479 7.253 8.743 9.575 14.717 1.753 4.511 3.838 11.289 4.408 23.768.615 13.498.745 17.546.745 51.723 0 34.178-.13 38.226-.745 51.723-.57 12.48-2.655 19.257-4.408 23.768-2.322 5.974-5.096 10.239-9.575 14.718-4.479 4.479-8.743 7.253-14.717 9.574-4.511 1.753-11.289 3.839-23.769 4.408-13.495.616-17.543.746-51.722.746-34.18 0-38.228-.13-51.723-.746-12.48-.57-19.257-2.655-23.768-4.408-5.974-2.321-10.239-5.095-14.718-9.574-4.479-4.48-7.253-8.744-9.574-14.718-1.753-4.51-3.839-11.288-4.408-23.768-.616-13.497-.746-17.545-.746-51.723 0-34.177.13-38.225.746-51.722.57-12.48 2.655-19.258 4.408-23.769 2.321-5.974 5.095-10.238 9.574-14.717 4.48-4.48 8.744-7.253 14.718-9.575 4.51-1.753 11.289-3.838 23.768-4.408 13.497-.615 17.545-.745 51.723-.745M128 0C93.237 0 88.878.147 75.226.77c-13.625.622-22.93 2.786-31.071 5.95-8.418 3.271-15.556 7.648-22.672 14.764C14.367 28.6 9.991 35.738 6.72 44.155 3.555 52.297 1.392 61.602.77 75.226.147 88.878 0 93.237 0 128c0 34.763.147 39.122.77 52.774.622 13.625 2.785 22.93 5.95 31.071 3.27 8.417 7.647 15.556 14.763 22.672 7.116 7.116 14.254 11.492 22.672 14.763 8.142 3.165 17.446 5.328 31.07 5.95 13.653.623 18.012.77 52.775.77s39.122-.147 52.774-.77c13.624-.622 22.929-2.785 31.07-5.95 8.418-3.27 15.556-7.647 22.672-14.763 7.116-7.116 11.493-14.254 14.764-22.672 3.164-8.142 5.328-17.446 5.95-31.07.623-13.653.77-18.012.77-52.775s-.147-39.122-.77-52.774c-.622-13.624-2.786-22.929-5.95-31.07-3.271-8.418-7.648-15.556-14.764-22.672C227.4 14.368 220.262 9.99 211.845 6.72c-8.142-3.164-17.447-5.328-31.071-5.95C167.122.147 162.763 0 128 0Zm0 62.27C91.698 62.27 62.27 91.7 62.27 128c0 36.302 29.428 65.73 65.73 65.73 36.301 0 65.73-29.428 65.73-65.73 0-36.301-29.429-65.73-65.73-65.73Zm0 108.397c-23.564 0-42.667-19.103-42.667-42.667S104.436 85.333 128 85.333s42.667 19.103 42.667 42.667-19.103 42.667-42.667 42.667Zm83.686-110.994c0 8.484-6.876 15.36-15.36 15.36-8.483 0-15.36-6.876-15.36-15.36 0-8.483 6.877-15.36 15.36-15.36 8.484 0 15.36 6.877 15.36 15.36Z"/>
  </symbol>

<!-- Versión A: Outline + triángulo relleno -->
<symbol id="yt" viewBox="0 0 24 24" xmlns="http://www.w3.org/2000/svg">
  <!-- marco redondeado -->
  <rect x="1.5" y="5" width="21" height="14" rx="3.5" fill="none" stroke="currentColor" stroke-width="1.4"/>
  <!-- triángulo play -->
  <path fill="currentColor" d="M10 8.75v6.5L15.5 12 10 8.75z"/>
</symbol>

<!-- Versión B: Pill sólido con triángulo recortado (monocroma) -->
<symbol id="yt" viewBox="0 0 24 24">
  <path fill="currentColor" d="M21.8 8.001c-.2-1.2-.9-2.1-2.1-2.3C17.2 5.3 12 5.3 12 5.3s-5.2 0-7.7.4c-1.2.2-1.9 1.1-2.1 2.3-.3 2-.3 3.999-.3 3.999s0 2 .3 3.999c.2 1.2.9 2.1 2.1 2.3 2.5.4 7.7.4 7.7.4s5.2 0 7.7-.4c1.2-.2 1.9-1.1 2.1-2.3.3-2 .3-3.999.3-3.999s0-2-.3-3.999zM10 15V9l6 3-6 3z"/>
</symbol>





</svg>

