<?xml version="1.0" encoding="UTF-8"?>
<svg id="Capa_1" data-name="Capa 1" xmlns="http://www.w3.org/2000/svg" viewBox="0 0 141.73 141.73">
  <rect width="141.73" height="141.73" rx="14.17" ry="14.17" style="fill: #650e34;"/>
  <g style="opacity: .25;">
    <path d="M75.06,143.1c-4.84-16.26-4.28-28.72,1.64-37.03,5.99-8.41,15.72-10.39,26.03-12.48,11.09-2.25,23.66-4.81,33.97-15.8,8.86-9.45,14.08-23.27,10.34-27.38-1.93-2.12-5.73-1.04-11.49.6-5.77,1.64-13.19,3.75-22.41,3.75-2.71,0-5.58-.18-8.61-.61-8.03-1.14-13-3.58-15.13-4.62-.25-.12-.46-.22-.63-.3-4.74-2.21-8.9-5.17-12.05-8.58-3.68-3.98-5.85-8.39-6.45-13.11-.85-6.62,1.52-13.11,3.82-19.38,2.19-5.99,4.45-12.18,3.91-18.49-.7-8.26-6.11-16.26-16.52-24.47-1.53-1.2-3.12-2.4-4.65-3.56-6.55-4.94-13.32-10.06-17.59-17.12-5.1-8.45,1.48-21.83,10.54-27.71l.16.25c-8.95,5.8-15.47,18.99-10.45,27.3,4.24,7.02,10.99,12.11,17.52,17.04,1.54,1.16,3.13,2.36,4.66,3.57,10.48,8.26,15.93,16.33,16.64,24.68.54,6.37-1.73,12.6-3.93,18.61-2.28,6.24-4.64,12.69-3.8,19.24,1.1,8.6,7.95,16.62,18.33,21.46.18.08.39.19.63.31,2.11,1.03,7.05,3.45,15.04,4.59,13.26,1.89,23.45-1.01,30.89-3.13,5.86-1.67,9.74-2.77,11.79-.51,3.91,4.29-1.22,18.05-10.34,27.78-10.37,11.06-22.99,13.63-34.13,15.89-10.25,2.08-19.93,4.05-25.85,12.36-5.87,8.24-6.41,20.61-1.6,36.78l-.28.08Z" style="fill: #fff;"/>
    <path d="M78.9,143.43c-4.5-15.5-3.83-27.4,1.97-35.39,5.83-8.03,15.19-9.97,25.1-12.03,10.66-2.22,22.75-4.73,32.69-15.27,4.92-5.22,8.85-11.89,10.51-17.86,1.26-4.54,1.09-8-.49-9.74-1.82-2.01-5.13-1.36-10.38-.12l-1.16.27c-6.13,1.45-14.52,3.45-24.73,2.76-1.91-.13-3.93-.37-6.18-.75-8.34-1.39-13.22-4.1-15.3-5.26l-.28-.15c-.22-.12-.44-.24-.66-.36-.78-.43-1.6-.87-2.38-1.35-4.93-3.06-13.4-9.8-14.71-20.57-.33-2.69-.2-5.57.4-8.8.63-3.44,1.71-6.88,2.75-10.2,2-6.39,3.88-12.42,3.03-18.68-.99-7.22-5.51-13.94-14.24-21.14-.93-.77-1.95-1.57-3.01-2.38-1.23-.94-2.51-1.89-3.75-2.81-6.93-5.16-14.1-10.49-18.47-17.97-5.13-8.8,1.13-21.57,10.2-27.98l.17.24c-8.96,6.33-15.17,18.93-10.12,27.59,4.33,7.43,11.48,12.74,18.39,17.88,1.24.92,2.52,1.87,3.75,2.82,1.06.81,2.08,1.62,3.02,2.39,8.79,7.26,13.35,14.04,14.35,21.33.87,6.33-1.12,12.68-3.04,18.81-1.04,3.32-2.11,6.74-2.74,10.17-.59,3.2-.72,6.05-.39,8.71,1.3,10.65,9.69,17.32,14.58,20.36.77.48,1.58.92,2.36,1.34.22.12.44.24.66.36l.28.15c2.07,1.15,6.92,3.84,15.21,5.22,2.24.37,4.26.62,6.15.74,10.17.68,18.53-1.3,24.64-2.75l1.16-.27c5.36-1.26,8.74-1.92,10.67.21,1.65,1.82,1.84,5.38.55,10.02-1.67,6.01-5.63,12.74-10.58,17.98-10.01,10.61-22.14,13.13-32.85,15.36-9.85,2.05-19.15,3.98-24.92,11.91-5.75,7.91-6.39,19.73-1.92,35.13l-.29.08Z" style="fill: #fff;"/>
    <path d="M82.73,143.76c-4.16-14.74-3.39-26.09,2.3-33.74,5.68-7.64,14.65-9.55,24.16-11.57,10.24-2.18,21.84-4.64,31.42-14.73,5.01-5.27,8.9-12.02,10.42-18.04,1.14-4.52.89-8-.72-9.79-1.91-2.13-5.45-1.47-10.34-.54l-1.27.24c-6.16,1.18-14.59,2.78-24.63,1.83-1.75-.17-3.71-.46-6.16-.93-8.7-1.67-13.74-4.85-15.4-5.9-.39-.25-.79-.48-1.19-.72-.59-.35-1.19-.71-1.77-1.1-8.11-5.48-13.1-12.96-14.05-21.06-.31-2.68-.21-5.58.31-8.87.52-3.25,1.36-6.48,2.18-9.61,1.71-6.57,3.33-12.77,2.13-19.03-1.71-8.87-8.88-15.49-14.93-20.26-.96-.75-1.96-1.52-3.05-2.33-.9-.67-1.82-1.34-2.73-2.01-7.36-5.38-14.98-10.95-19.45-18.88-5.29-9.39,1.13-21.57,9.86-28.25l.18.24c-8.63,6.61-14.99,18.63-9.78,27.87,4.44,7.88,12.03,13.43,19.37,18.79.92.67,1.83,1.34,2.73,2.01,1.1.81,2.1,1.58,3.06,2.33,6.09,4.8,13.31,11.47,15.03,20.44,1.22,6.33-.41,12.56-2.13,19.16-.81,3.12-1.66,6.35-2.17,9.58-.52,3.26-.62,6.13-.31,8.79.94,8.01,5.88,15.42,13.92,20.85.57.39,1.17.74,1.76,1.09.4.24.8.48,1.19.72,1.64,1.04,6.65,4.2,15.3,5.86,2.44.47,4.39.76,6.13.93,10,.95,18.41-.65,24.55-1.83l1.27-.24c4.99-.94,8.59-1.62,10.62.64,1.67,1.87,1.95,5.44.79,10.06-1.53,6.07-5.45,12.86-10.49,18.17-9.64,10.16-21.3,12.64-31.58,14.82-9.45,2.01-18.38,3.91-23.98,11.46-5.62,7.57-6.38,18.84-2.25,33.48l-.29.08Z" style="fill: #fff;"/>
    <path d="M86.57,144.1c-3.87-14.17-3.01-24.67,2.62-32.09,5.52-7.26,14.12-9.13,23.22-11.11,9.81-2.14,20.94-4.56,30.15-14.2,5.09-5.33,8.95-12.14,10.33-18.22,1.04-4.57.71-7.96-.95-9.83-1.92-2.16-5.41-1.66-10.24-.97h-.07c-.46.07-.92.14-1.4.21-6.52.95-14.64,2.12-24.5.9-1.91-.24-3.84-.62-6.14-1.12-5.87-1.28-11.13-3.49-15.22-6.39-.43-.3-.88-.59-1.32-.87-.52-.33-1.05-.68-1.56-1.05-7.71-5.66-12.47-13.32-13.39-21.55-.3-2.7-.23-5.54.23-8.93.4-3,1.03-5.97,1.63-8.84,1.44-6.82,2.79-13.25,1.2-19.56-2.1-8.3-9.07-14.45-15.61-19.38-.96-.72-1.97-1.46-3.1-2.27-.52-.38-1.05-.75-1.58-1.13-7.86-5.62-15.98-11.42-20.58-19.86-5.37-9.85.91-21.42,9.52-28.53l.19.23c-8.51,7.03-14.74,18.46-9.45,28.16,4.57,8.38,12.67,14.17,20.5,19.76.53.38,1.05.75,1.58,1.13,1.13.81,2.14,1.55,3.1,2.27,6.59,4.96,13.6,11.15,15.72,19.54,1.61,6.37.25,12.84-1.2,19.69-.6,2.87-1.23,5.83-1.63,8.82-.45,3.37-.53,6.18-.23,8.86.91,8.15,5.62,15.73,13.27,21.35.5.37,1.03.71,1.54,1.04.44.28.9.58,1.33.88,4.05,2.88,9.28,5.07,15.11,6.34,2.29.5,4.21.88,6.11,1.11,9.82,1.21,17.92.04,24.42-.9.48-.07.95-.14,1.4-.2h.07c4.92-.71,8.47-1.22,10.5,1.06,1.72,1.94,2.08,5.43,1.02,10.09-1.39,6.13-5.28,13-10.41,18.36-9.28,9.71-20.45,12.14-30.3,14.29-9.05,1.97-17.6,3.83-23.05,11-5.58,7.34-6.42,17.75-2.58,31.83l-.29.08Z" style="fill: #fff;"/>
    <path d="M90.4,144.43c-3.53-13.4-2.56-23.36,2.95-30.44,5.35-6.87,13.57-8.71,22.28-10.65,9.39-2.1,20.04-4.47,28.89-13.67,5.18-5.38,9.01-12.26,10.25-18.4.92-4.54.51-7.96-1.18-9.87-1.94-2.19-5.32-1.86-10.01-1.41l-.26.02c-.51.05-1.03.1-1.57.15-6.54.65-14.68,1.46-24.34-.01-2.05-.31-4.21-.84-6.11-1.3-7.94-1.94-12.83-5.14-15.04-6.87-.43-.34-.9-.66-1.35-.98-.48-.33-.98-.68-1.45-1.05-7.31-5.82-11.83-13.65-12.72-22.04-.28-2.67-.24-5.53.14-9,.29-2.66.72-5.29,1.13-7.83,1.16-7.16,2.26-13.93.23-20.32-2.45-7.74-9.28-13.46-16.3-18.5-.94-.67-1.97-1.4-3.14-2.21l-.24-.16c-8.43-5.86-17.14-11.92-21.89-20.93-2.52-4.77-2.72-9.97-.61-15.45,2.26-5.87,6.57-10.5,9.79-13.35l.2.22c-3.86,3.41-15.91,15.56-9.11,28.44,4.72,8.94,13.4,14.98,21.8,20.82l.24.16c1.18.82,2.2,1.54,3.15,2.22,7.06,5.07,13.93,10.83,16.41,18.65,2.05,6.46.95,13.26-.22,20.46-.41,2.54-.84,5.17-1.13,7.82-.38,3.44-.42,6.28-.14,8.93.89,8.31,5.37,16.07,12.61,21.84.46.37.95.71,1.43,1.04.45.31.92.64,1.36.99,2.19,1.72,7.04,4.89,14.93,6.82,1.9.46,4.05.99,6.09,1.3,9.63,1.47,17.75.66,24.27,0,.54-.05,1.06-.11,1.57-.15l.26-.02c4.77-.46,8.22-.8,10.26,1.51,1.76,1.99,2.19,5.49,1.25,10.13-1.25,6.19-5.11,13.13-10.32,18.55-8.91,9.27-19.6,11.65-29.03,13.76-8.65,1.93-16.82,3.75-22.11,10.54-5.46,7-6.4,16.88-2.9,30.18l-.29.08Z" style="fill: #fff;"/>
    <path d="M94.24,144.76c-3.19-12.63-2.11-22.05,3.28-28.79,5.19-6.49,13.03-8.28,21.33-10.19,8.97-2.05,19.14-4.38,27.62-13.15,5.26-5.44,9.06-12.38,10.16-18.59.8-4.52.31-7.95-1.41-9.91-1.85-2.11-5.1-2.68-10.21-1.81-7.2,1.24-16.17.95-25.94-.82-1.85-.33-3.68-.83-5.63-1.36l-.46-.13c-8.01-2.17-12.75-5.54-14.86-7.36-.43-.37-.89-.71-1.34-1.05-.46-.34-.93-.7-1.38-1.08-7.01-6.04-11.18-13.84-12.06-22.53-.27-2.66-.25-5.46.06-9.06.19-2.21.44-4.4.69-6.52.89-7.63,1.73-14.84-.8-21.39-2.91-7.53-10.29-13.04-16.98-17.62-1.06-.72-2.12-1.44-3.19-2.16-9.06-6.1-17.56-12.32-22.1-21.2-2.52-4.93-2.78-10.16-.78-15.55,1.69-4.54,4.92-9.09,9.62-13.53l.2.22c-7.21,6.82-14.59,17.34-8.78,28.72,4.51,8.81,12.98,15,22,21.08,1.06.72,2.13,1.43,3.19,2.16,6.73,4.6,14.15,10.15,17.09,17.75,2.56,6.62,1.71,13.86.82,21.53-.25,2.12-.5,4.3-.69,6.51-.31,3.58-.33,6.36-.06,9,.88,8.62,5.01,16.34,11.96,22.34.44.38.91.73,1.36,1.07.45.34.92.69,1.35,1.06,2.09,1.8,6.79,5.14,14.74,7.3l.46.13c1.94.53,3.77,1.03,5.61,1.36,9.73,1.77,18.67,2.05,25.83.82,5.22-.9,8.55-.29,10.48,1.9,1.79,2.04,2.3,5.55,1.48,10.16-1.11,6.26-4.94,13.26-10.24,18.74-8.54,8.83-18.76,11.17-27.77,13.23-8.25,1.89-16.04,3.67-21.16,10.08-5.33,6.67-6.39,16-3.23,28.53l-.29.07Z" style="fill: #fff;"/>
    <path d="M98.08,145.1c-2.84-11.86-1.66-20.74,3.61-27.14,5.02-6.1,12.48-7.86,20.38-9.72,8.56-2.01,18.25-4.3,26.36-12.62,5.34-5.49,9.11-12.5,10.07-18.77.69-4.49.12-7.93-1.64-9.96-1.94-2.22-5.18-2.93-10.17-2.23-6.85.97-15.83.35-25.95-1.78-1.71-.36-3.41-.87-5.2-1.41l-.87-.26c-8.34-2.5-13.04-6.32-14.68-7.85-.42-.39-.87-.76-1.31-1.11-.44-.36-.9-.73-1.33-1.13-6.6-6.16-10.54-14.12-11.4-23.02-.32-3.31-.19-6.47-.03-9.12.1-1.62.22-3.24.34-4.8.62-8.27,1.21-16.08-1.92-22.87-3.19-6.91-10.18-11.86-17.67-16.73l-.78-.51c-.82-.53-1.63-1.06-2.45-1.59-8.24-5.38-17.42-11.9-22.07-21.3-4.63-9.34-1.85-18.94,8.5-29.35l.21.21c-10.24,10.31-13,19.79-8.44,29.01,4.62,9.33,13.76,15.82,21.97,21.18.81.53,1.63,1.06,2.45,1.59l.78.51c7.53,4.9,14.55,9.88,17.77,16.86,3.16,6.86,2.57,14.7,1.95,23.01-.12,1.56-.24,3.17-.34,4.79-.16,2.64-.29,5.79.03,9.08.85,8.83,4.76,16.73,11.3,22.83.42.39.87.76,1.31,1.11.44.36.9.73,1.33,1.12,1.62,1.51,6.28,5.3,14.56,7.78l.87.26c1.79.54,3.47,1.05,5.17,1.41,10.09,2.13,19.03,2.74,25.85,1.78,5.1-.72,8.42.02,10.43,2.33,1.82,2.09,2.42,5.62,1.71,10.2-.97,6.32-4.76,13.4-10.15,18.93-8.17,8.39-17.91,10.68-26.51,12.7-7.85,1.85-15.26,3.59-20.21,9.62-5.21,6.33-6.37,15.12-3.55,26.89l-.29.07Z" style="fill: #fff;"/>
    <path d="M101.91,145.43c-2.5-11.09-1.21-19.43,3.94-25.49,4.85-5.72,11.93-7.43,19.42-9.25,8.14-1.97,17.37-4.21,25.11-12.1,5.43-5.54,9.16-12.62,9.98-18.95.58-4.46-.07-7.92-1.88-10-2-2.3-5.31-3.17-10.13-2.65-6.66.72-15.4-.21-25.96-2.75-1.63-.39-3.23-.92-4.92-1.49-.37-.12-.75-.25-1.13-.37-8.33-2.73-12.91-6.74-14.49-8.33-.4-.4-.84-.79-1.27-1.16-.43-.38-.88-.77-1.29-1.18-6.18-6.24-9.9-14.37-10.73-23.51-.29-3.16-.22-6.28-.11-9.19.03-.85.07-1.69.1-2.53.37-9.14.72-17.77-3.15-24.89-3.68-6.77-11.14-11.39-18.35-15.85-1.09-.67-2.19-1.36-3.28-2.04-8.36-5.28-17.51-11.95-22.04-21.4-5.85-12.19.84-21.81,8.16-29.62l.22.2c-7.25,7.73-13.88,17.26-8.11,29.29,4.5,9.38,13.62,16.02,21.94,21.28,1.09.69,2.18,1.37,3.27,2.04,7.25,4.49,14.74,9.13,18.46,15.96,3.91,7.19,3.56,15.86,3.19,25.04-.03.84-.07,1.68-.1,2.53-.11,2.89-.18,6,.11,9.15.83,9.07,4.51,17.14,10.65,23.33.41.41.85.8,1.28,1.17.43.37.87.76,1.28,1.17,1.57,1.58,6.11,5.55,14.38,8.26.38.12.75.25,1.13.37,1.69.56,3.28,1.09,4.9,1.48,10.53,2.53,19.23,3.46,25.86,2.74,4.92-.53,8.32.37,10.38,2.75,1.86,2.15,2.54,5.69,1.95,10.23-.83,6.39-4.59,13.54-10.06,19.12-7.8,7.96-17.07,10.2-25.25,12.18-7.44,1.8-14.47,3.51-19.26,9.15-5.09,5.99-6.35,14.25-3.88,25.24l-.29.07Z" style="fill: #fff;"/>
    <path d="M105.75,145.76c-2.16-10.31-.76-18.11,4.27-23.85,4.68-5.33,11.37-7,18.45-8.77,7.73-1.93,16.49-4.12,23.87-11.59,5.51-5.59,9.21-12.74,9.89-19.13.47-4.42-.26-7.9-2.11-10.04-2.07-2.4-5.43-2.68-9.69-3.03l-.42-.04c-.88-.07-1.79-.14-2.72-.22-6.46-.51-14.51-1.14-23.22-3.49-1.57-.43-3.11-.99-4.74-1.58-.43-.16-.86-.31-1.29-.47-8.3-2.97-12.77-7.16-14.31-8.82-.38-.41-.81-.81-1.21-1.2-.43-.4-.86-.81-1.27-1.25-5.77-6.3-9.25-14.6-10.07-24-.27-3.08-.25-6.14-.2-9.25.14-10.08.27-19.61-4.52-27.17-3.82-6.04-10.67-10.06-17.93-14.32l-1.11-.65c-1.16-.68-2.28-1.35-3.32-1.98-7.82-4.78-17.38-11.54-22.02-21.5-2.56-5.51-2.98-10.69-1.27-15.84,1.78-5.37,5.79-10.33,9.09-14.06l.22.2c-8.72,9.84-13.06,18.22-7.77,29.57,4.6,9.88,14.12,16.61,21.9,21.37,1.04.63,2.16,1.3,3.32,1.98l1.11.65c7.29,4.27,14.17,8.31,18.03,14.42,4.83,7.64,4.7,17.21,4.57,27.34-.05,3.11-.07,6.15.2,9.22.81,9.34,4.27,17.58,9.99,23.83.4.43.83.84,1.25,1.24.41.39.84.79,1.23,1.21,1.52,1.65,5.95,5.79,14.19,8.74.43.16.86.31,1.29.47,1.62.59,3.15,1.15,4.71,1.57,8.69,2.35,16.72,2.98,23.17,3.49.93.07,1.84.14,2.72.22l.42.04c4.32.36,7.73.64,9.89,3.13,1.9,2.21,2.66,5.76,2.18,10.27-.69,6.46-4.42,13.67-9.98,19.31-7.43,7.53-16.24,9.73-24.01,11.67-7.04,1.76-13.69,3.42-18.3,8.68-4.96,5.66-6.34,13.37-4.2,23.59l-.29.06Z" style="fill: #fff;"/>
    <path d="M109.59,146.1c-1.81-9.54-.31-16.8,4.6-22.2,4.5-4.94,10.8-6.57,17.48-8.29,7.68-1.98,15.63-4.03,22.63-11.07,5.6-5.63,9.27-12.85,9.81-19.31.37-4.39-.44-7.87-2.34-10.08-2.13-2.47-5.48-2.9-9.72-3.45l-.35-.05c-1.03-.13-2.1-.26-3.2-.4-6.72-.82-14.34-1.74-22.75-4.28-1.54-.46-3.03-1.06-4.61-1.68-.46-.18-.92-.37-1.39-.55-8.26-3.21-12.63-7.58-14.13-9.31-.37-.42-.77-.83-1.16-1.22-.42-.43-.85-.87-1.25-1.33-5.44-6.41-8.6-14.65-9.41-24.49-.24-2.92-.26-5.83-.28-8.64v-.67c-.09-9.6-.63-19.58-5.99-26.93-3.93-5.38-10.37-8.93-17.18-12.68-.84-.46-1.69-.93-2.54-1.41-1.15-.64-2.29-1.29-3.37-1.93-11.39-6.74-18.38-13.61-21.99-21.6-5.25-11.63-1.42-19.58,7.48-30.17l.23.19c-8.82,10.5-12.62,18.37-7.43,29.86,3.58,7.94,10.53,14.76,21.87,21.47,1.08.64,2.21,1.28,3.36,1.92.85.48,1.7.94,2.54,1.41,6.85,3.77,13.31,7.33,17.28,12.77,5.42,7.42,5.96,17.45,6.05,27.1v.67c.02,2.81.04,5.71.28,8.62.8,9.78,3.94,17.96,9.34,24.32.39.46.82.89,1.24,1.32.39.4.8.81,1.17,1.24,1.48,1.71,5.81,6.04,14.01,9.23.47.18.93.37,1.39.55,1.57.62,3.06,1.22,4.59,1.68,8.39,2.53,15.99,3.45,22.7,4.27,1.1.13,2.17.26,3.2.4l.35.05c4.3.55,7.7.99,9.9,3.55,1.98,2.3,2.79,5.77,2.41,10.3-.55,6.52-4.24,13.81-9.89,19.49-7.06,7.1-15.4,9.25-22.76,11.15-6.63,1.71-12.9,3.33-17.34,8.21-4.84,5.32-6.32,12.5-4.53,21.94l-.29.06Z" style="fill: #fff;"/>
    <path d="M113.42,146.43c-1.96-11.68,1.87-17.32,4.93-20.55,4.31-4.56,10.23-6.14,16.5-7.81,7.26-1.94,14.76-3.94,21.4-10.57,5.69-5.68,9.32-12.97,9.72-19.49.27-4.41-.6-7.81-2.57-10.12-2.18-2.55-5.54-3.14-9.78-3.87l-.25-.04c-1.22-.21-2.48-.42-3.78-.63-6.61-1.09-14.09-2.32-22.18-5.01-1.52-.51-2.99-1.14-4.54-1.8-.48-.2-.96-.41-1.44-.61-7.91-3.32-12.13-7.56-13.94-9.79-.35-.42-.72-.84-1.09-1.24-.42-.46-.85-.93-1.24-1.42-5.02-6.39-7.96-14.79-8.75-24.98-.19-2.45-.25-4.9-.31-7.27-.02-.7-.04-1.41-.06-2.1-.3-9.6-1.42-19.48-7.46-26.68-4.01-4.78-10.08-7.89-16.5-11.18-1.28-.65-2.6-1.33-3.91-2.02-1.16-.61-2.31-1.24-3.41-1.87-11.18-6.4-18.37-13.5-21.96-21.7-2.6-5.94-3.11-11.04-1.6-16.04,1.41-4.65,4.38-8.96,8.73-14.41l.23.19c-7.92,9.92-12.69,17.37-7.1,30.14,3.57,8.14,10.71,15.2,21.83,21.57,1.1.63,2.24,1.26,3.4,1.87,1.31.69,2.63,1.37,3.91,2.02,6.46,3.31,12.55,6.43,16.6,11.26,6.1,7.28,7.22,17.21,7.53,26.87.02.7.04,1.4.06,2.11.06,2.37.12,4.82.31,7.26.78,10.13,3.7,18.48,8.68,24.82.38.49.81.96,1.22,1.41.37.4.75.82,1.1,1.25,1.79,2.21,5.98,6.41,13.83,9.71.48.2.96.41,1.44.61,1.55.67,3.01,1.29,4.52,1.79,8.06,2.68,15.54,3.91,22.13,4.99,1.3.21,2.56.42,3.79.63l.25.04c4.31.74,7.71,1.33,9.96,3.97,2.03,2.37,2.91,5.85,2.64,10.34-.4,6.59-4.07,13.95-9.81,19.68-6.69,6.68-14.57,8.78-21.53,10.64-6.23,1.66-12.11,3.23-16.36,7.73-3.01,3.18-6.79,8.74-4.85,20.29l-.29.05Z" style="fill: #fff;"/>
    <path d="M117.26,146.76c-1.51-10.65,2.28-15.89,5.26-18.9,4.12-4.17,9.65-5.7,15.51-7.32,6.84-1.89,13.91-3.85,20.18-10.06,5.78-5.73,9.38-13.08,9.63-19.67.17-4.3-.8-7.81-2.8-10.17-2.25-2.65-5.79-3.42-9.89-4.31l-.11-.02c-1.44-.31-2.92-.62-4.48-.94-6.46-1.34-13.77-2.85-21.49-5.66-1.52-.55-2.98-1.23-4.53-1.94-.48-.22-.95-.44-1.43-.66-7.85-3.56-11.99-7.97-13.76-10.28-.32-.42-.67-.84-1.01-1.24-.42-.49-.85-1-1.24-1.53-4.66-6.42-7.31-14.75-8.08-25.47-.14-1.99-.22-3.98-.3-5.9-.05-1.16-.09-2.37-.15-3.54-.68-12.54-3.43-20.7-8.92-26.44-4.06-4.24-9.81-6.95-15.9-9.82-1.7-.8-3.45-1.63-5.2-2.5-1.17-.58-2.33-1.19-3.46-1.81-10.99-6.08-18.36-13.42-21.93-21.81-5.35-12.59-1.86-19.34,6.8-30.72l.24.18c-8.59,11.29-12.05,17.97-6.76,30.42,3.54,8.33,10.87,15.62,21.8,21.66,1.12.62,2.28,1.23,3.44,1.81,1.75.87,3.5,1.7,5.2,2.5,6.11,2.88,11.89,5.6,15.99,9.89,5.47,5.72,8.34,14.18,9.01,26.63.06,1.17.11,2.38.15,3.54.08,1.92.15,3.91.3,5.89.77,10.66,3.4,18.95,8.03,25.32.38.52.81,1.03,1.22,1.51.34.4.7.82,1.02,1.25,1.75,2.29,5.85,6.66,13.65,10.19.48.22.96.44,1.44.66,1.54.71,2.99,1.39,4.5,1.93,7.7,2.8,15.01,4.31,21.45,5.65,1.56.32,3.03.63,4.48.94l.11.02c4.15.91,7.73,1.69,10.05,4.41,2.08,2.45,3.04,5.94,2.87,10.37-.26,6.67-3.89,14.09-9.72,19.87-6.32,6.26-13.43,8.23-20.31,10.14-5.82,1.61-11.31,3.13-15.38,7.24-2.93,2.97-6.66,8.13-5.18,18.65l-.29.04Z" style="fill: #fff;"/>
    <path d="M121.09,147.09c-1.05-9.62,2.69-14.45,5.59-17.25,3.93-3.78,9.06-5.26,14.5-6.83,6.43-1.85,13.07-3.76,18.97-9.56,5.87-5.77,9.43-13.19,9.54-19.85.07-4.25-.98-7.78-3.03-10.21-2.33-2.75-5.86-3.68-9.95-4.76-1.7-.45-3.44-.88-5.28-1.34-6.27-1.56-13.37-3.33-20.7-6.23-1.53-.6-2.99-1.33-4.54-2.1-.46-.23-.93-.46-1.4-.69-7.79-3.79-11.85-8.37-13.58-10.77-.3-.41-.62-.82-.93-1.22-.42-.53-.85-1.08-1.24-1.66-4.35-6.48-6.64-14.48-7.42-25.96-.1-1.51-.18-3.03-.25-4.49-.08-1.65-.16-3.36-.29-5.01-.91-12.04-4.31-20.61-10.39-26.2-4.1-3.77-9.58-6.11-15.37-8.6-2.09-.9-4.26-1.82-6.42-2.84-1.18-.55-2.36-1.15-3.5-1.76-7.53-4.03-17.44-11.1-21.9-21.91-5.55-13.46-1.6-19.88,6.46-31l.24.17c-8,11.02-11.92,17.39-6.42,30.71,4.43,10.73,14.28,17.75,21.77,21.76,1.14.61,2.31,1.2,3.49,1.75,2.16,1.02,4.32,1.94,6.41,2.84,5.82,2.49,11.32,4.85,15.46,8.65,6.14,5.64,9.57,14.27,10.49,26.39.12,1.66.21,3.37.29,5.02.07,1.47.15,2.98.25,4.49.78,11.42,3.05,19.38,7.37,25.81.38.57.81,1.11,1.23,1.64.31.4.64.81.94,1.23,1.71,2.37,5.74,6.91,13.47,10.67.47.23.94.46,1.4.69,1.54.77,3,1.49,4.52,2.09,7.31,2.89,14.41,4.66,20.66,6.21,1.84.46,3.58.89,5.28,1.34,4.14,1.09,7.72,2.04,10.1,4.85,2.1,2.49,3.17,6.08,3.1,10.41-.11,6.74-3.71,14.24-9.63,20.06-5.95,5.85-12.63,7.78-19.1,9.64-5.4,1.56-10.51,3.02-14.38,6.75-2.86,2.75-6.54,7.51-5.5,17l-.3.03Z" style="fill: #fff;"/>
    <path d="M124.93,147.42c-.6-8.49,2.85-12.8,5.92-15.59,3.72-3.39,8.46-4.82,13.48-6.32,6.02-1.81,12.25-3.68,17.78-9.08,5.96-5.81,9.49-13.3,9.46-20.04-.02-4.19-1.15-7.74-3.27-10.25-2.41-2.86-6.05-3.99-9.91-5.18-1.98-.61-4.01-1.2-6.16-1.83-6.05-1.75-12.9-3.74-19.82-6.7-1.56-.67-3.11-1.49-4.61-2.29-.43-.23-.87-.46-1.31-.69-5.72-2.99-10.48-6.98-13.39-11.25-.27-.4-.56-.79-.84-1.17-.43-.58-.87-1.18-1.26-1.81-4.97-8.01-6.19-17.44-6.76-26.45-.06-1.03-.12-2.05-.18-3.06-.12-2.15-.24-4.36-.44-6.51-1.15-11.78-5.14-20.52-11.86-25.96-4.13-3.34-9.38-5.36-14.94-7.5-2.46-.95-5.01-1.93-7.55-3.06-1.19-.53-2.38-1.1-3.54-1.7-10.62-5.49-18.39-13.3-21.87-22.01-5.47-13.66-2.08-19.46,6.12-31.27l.24.17c-8.13,11.72-11.5,17.48-6.09,30.99,3.46,8.64,11.18,16.4,21.73,21.86,1.16.6,2.34,1.17,3.53,1.69,2.53,1.13,5.07,2.1,7.53,3.05,5.58,2.15,10.85,4.18,15.02,7.55,6.79,5.49,10.81,14.29,11.97,26.16.2,2.15.33,4.37.44,6.52.06,1.02.11,2.04.18,3.06.57,8.96,1.78,18.36,6.72,26.31.38.62.82,1.21,1.24,1.79.28.38.57.78.84,1.18,2.89,4.23,7.6,8.19,13.29,11.16.44.23.87.46,1.31.69,1.57.83,3.04,1.61,4.59,2.27,6.91,2.95,13.75,4.94,19.79,6.69,2.15.62,4.18,1.21,6.17,1.83,3.9,1.21,7.59,2.35,10.05,5.27,2.16,2.57,3.31,6.18,3.33,10.44.04,6.81-3.53,14.38-9.55,20.25-5.59,5.45-11.85,7.33-17.91,9.15-4.99,1.5-9.69,2.91-13.36,6.26-3.02,2.75-6.41,6.99-5.82,15.35l-.3.02Z" style="fill: #fff;"/>
    <path d="M128.77,147.75c-.15-7.47,3.26-11.38,6.25-13.94,3.5-3,7.84-4.37,12.43-5.81,5.63-1.77,11.44-3.59,16.62-8.6,6.05-5.85,9.55-13.41,9.37-20.22-.11-4.14-1.32-7.7-3.5-10.29-2.32-2.76-5.7-4.12-9.88-5.6-2.29-.81-4.63-1.59-7.11-2.41-6.08-2.01-12.37-4.09-18.88-7.08-1.6-.74-3.2-1.64-4.74-2.51-.38-.22-.77-.43-1.16-.65-5.67-3.17-10.36-7.34-13.21-11.74-.24-.37-.48-.73-.73-1.09-.44-.64-.89-1.31-1.29-2-4.64-8.09-5.56-17.74-6.1-26.94-.03-.54-.06-1.08-.09-1.61-.15-2.65-.3-5.39-.61-8.02-1.37-11.58-5.98-20.47-13.33-25.71-4.16-2.97-9.23-4.69-14.59-6.52-2.8-.96-5.7-1.94-8.59-3.15-1.21-.5-2.41-1.06-3.59-1.64-10.6-5.29-18.36-13.14-21.84-22.11-5.6-14.41-2.04-19.78,5.78-31.55l.25.16c-8.4,12.64-11.03,17.7-5.75,31.27,3.46,8.9,11.17,16.7,21.7,21.95,1.17.58,2.37,1.13,3.57,1.63,2.87,1.2,5.77,2.19,8.57,3.14,5.38,1.83,10.46,3.57,14.66,6.56,7.42,5.29,12.07,14.25,13.45,25.92.31,2.64.46,5.39.61,8.04.03.54.06,1.07.09,1.61.54,9.16,1.45,18.77,6.06,26.81.39.68.84,1.34,1.27,1.98.25.36.5.73.73,1.1,2.82,4.36,7.47,8.49,13.1,11.64.39.22.77.43,1.16.65,1.54.87,3.13,1.77,4.72,2.5,6.5,2.99,12.78,5.06,18.85,7.07,2.48.82,4.83,1.6,7.12,2.41,4.22,1.5,7.64,2.87,10,5.69,2.22,2.65,3.45,6.27,3.57,10.48.19,6.89-3.35,14.53-9.46,20.44-5.22,5.05-11.08,6.89-16.74,8.67-4.56,1.43-8.87,2.79-12.33,5.75-2.94,2.52-6.3,6.36-6.15,13.71h-.3Z" style="fill: #fff;"/>
    <path d="M132.9,148.09h-.3c.28-6.42,3.49-9.82,6.58-12.3,3.27-2.61,7.19-3.91,11.35-5.28,5.24-1.73,10.67-3.52,15.49-8.13,6.14-5.89,9.61-13.51,9.28-20.4-.2-4.07-1.49-7.65-3.73-10.34-2.41-2.88-5.88-4.44-9.84-6.03-2.6-1.05-5.27-2.03-8.09-3.08-5.81-2.15-11.81-4.37-17.91-7.37-1.68-.83-3.34-1.83-4.95-2.79-.31-.18-.61-.37-.92-.55-5.62-3.35-10.25-7.69-13.02-12.22-.2-.32-.4-.64-.6-.96-.46-.72-.93-1.46-1.34-2.24-4.39-8.31-4.93-18.03-5.44-27.43v-.12c-.19-3.31-.36-6.44-.79-9.58-1.59-11.43-6.84-20.48-14.79-25.47-4.2-2.64-9.11-4.1-14.32-5.65-3.12-.93-6.34-1.89-9.54-3.14-1.22-.48-2.44-1.01-3.63-1.58-10.43-5.02-18.38-13.12-21.82-22.21-5.52-14.62-2.54-19.3,5.44-31.82l.25.16c-7.92,12.43-10.88,17.08-5.41,31.56,3.41,9.02,11.31,17.06,21.67,22.05,1.19.57,2.4,1.1,3.61,1.58,3.18,1.25,6.4,2.21,9.51,3.13,5.23,1.55,10.16,3.02,14.39,5.68,8.02,5.05,13.33,14.17,14.93,25.68.43,3.15.61,6.43.78,9.6v.12c.52,9.37,1.05,19.05,5.41,27.3.4.76.87,1.5,1.33,2.22.2.32.41.64.6.96,2.75,4.49,7.34,8.79,12.92,12.12.31.18.62.37.92.55,1.6.96,3.26,1.96,4.93,2.78,6.09,3,12.08,5.22,17.88,7.36,2.83,1.04,5.49,2.03,8.1,3.08,3.99,1.61,7.5,3.18,9.95,6.11,2.28,2.74,3.6,6.37,3.8,10.51.34,6.97-3.17,14.68-9.37,20.63-4.87,4.67-10.33,6.46-15.6,8.2-4.13,1.36-8.03,2.65-11.26,5.23-3.04,2.44-6.19,5.78-6.47,12.07Z" style="fill: #fff;"/>
    <path d="M136.74,148.43l-.29-.04c.71-5.39,3.89-8.4,6.91-10.63,3.01-2.22,6.51-3.44,10.22-4.73,4.88-1.69,9.93-3.45,14.41-7.7,6.24-5.92,9.68-13.61,9.19-20.58-.28-4.01-1.65-7.6-3.96-10.38-2.51-3.02-6.07-4.77-9.8-6.45-2.92-1.31-5.9-2.53-9.06-3.82-5.53-2.25-11.24-4.59-16.95-7.59-1.8-.95-3.57-2.08-5.29-3.17l-.56-.36c-5.65-3.59-10.09-7.99-12.84-12.71-.14-.25-.29-.5-.44-.74-.49-.82-.99-1.68-1.42-2.56-3.81-7.83-4.23-16.55-4.67-25.78-.03-.71-.07-1.42-.1-2.13-.16-3.15-.35-6.49-.87-9.76-1.81-11.31-7.73-20.51-16.26-25.23-4.24-2.35-9.05-3.57-14.14-4.86-3.41-.87-6.93-1.76-10.41-3.04-1.23-.45-2.47-.97-3.68-1.53-10.42-4.84-18.36-12.97-21.79-22.31-5.45-14.86-3-18.85,5.09-32.08l.26.14v.02c-8.05,13.14-10.47,17.1-5.08,31.82,3.4,9.27,11.28,17.34,21.63,22.15,1.2.56,2.43,1.07,3.66,1.52,3.46,1.27,6.98,2.17,10.38,3.03,5.11,1.3,9.94,2.52,14.21,4.89,8.61,4.77,14.59,14.04,16.41,25.45.52,3.28.72,6.64.87,9.8.04.71.07,1.42.1,2.13.44,9.2.86,17.9,4.64,25.67.43.87.93,1.72,1.41,2.54.15.25.29.5.44.75,2.73,4.68,7.13,9.04,12.74,12.61l.56.36c1.71,1.09,3.48,2.22,5.27,3.16,5.7,3,11.4,5.33,16.92,7.58,3.16,1.29,6.15,2.51,9.07,3.83,3.76,1.69,7.35,3.47,9.9,6.53,2.35,2.83,3.75,6.48,4.03,10.55.49,7.06-2.98,14.84-9.29,20.82-4.53,4.29-9.61,6.06-14.51,7.76-3.68,1.28-7.16,2.49-10.14,4.68-3.12,2.3-6.1,5.16-6.79,10.43Z" style="fill: #fff;"/>
    <path d="M140.57,148.79l-.29-.07c1.12-4.35,4.14-6.88,7.24-8.97,2.72-1.83,5.77-2.95,9-4.13,4.55-1.67,9.25-3.39,13.41-7.29,6.25-5.85,9.74-13.81,9.11-20.76-.36-3.93-1.81-7.54-4.19-10.42-2.63-3.17-6.41-5.21-9.76-6.88-3.22-1.6-6.51-3.07-9.99-4.62-5.25-2.34-10.69-4.76-16.03-7.76-2-1.12-3.95-2.44-5.83-3.72-5.6-3.79-9.98-8.35-12.66-13.19l-.22-.4c-.54-.97-1.1-1.97-1.56-3.01-3.35-7.47-3.64-15.61-3.95-24.22-.05-1.37-.1-2.78-.16-4.18-.14-3.13-.36-6.48-.96-9.83-2.02-11.23-8.65-20.57-17.73-24.99-4.3-2.09-9.03-3.09-14.05-4.16-3.67-.78-7.47-1.58-11.19-2.86-1.25-.43-2.5-.92-3.72-1.47-10.26-4.6-18.4-12.97-21.76-22.41-5.39-15.13-3.28-18.71,4.56-32.03l.2-.34.26.15-.2.34c-7.98,13.57-9.88,16.79-4.54,31.78,3.34,9.36,11.41,17.68,21.6,22.24,1.21.54,2.46,1.03,3.7,1.46,3.7,1.27,7.49,2.08,11.16,2.85,5.03,1.07,9.78,2.07,14.11,4.18,9.17,4.46,15.85,13.88,17.89,25.21.6,3.36.82,6.73.96,9.87.06,1.4.12,2.81.16,4.18.31,8.59.6,16.7,3.93,24.11.46,1.03,1.02,2.02,1.55,2.99l.22.4c2.66,4.8,7,9.32,12.56,13.09,1.88,1.27,3.82,2.59,5.81,3.7,5.33,2.99,10.76,5.41,16,7.74,3.49,1.55,6.78,3.02,10,4.63,3.37,1.68,7.19,3.74,9.85,6.95,2.43,2.93,3.9,6.59,4.26,10.58.64,7.04-2.89,15.09-9.2,21-4.21,3.94-8.94,5.68-13.51,7.36-3.21,1.18-6.24,2.29-8.93,4.1-3.05,2.05-6.03,4.54-7.12,8.79Z" style="fill: #fff;"/>
    <path d="M144.4,149.15l-.27-.12c1.57-3.49,4.6-5.52,7.57-7.3,2.37-1.42,4.92-2.42,7.62-3.46,4.27-1.66,8.68-3.38,12.57-6.97,6.35-5.87,9.8-13.89,9.02-20.94-.44-3.91-1.92-7.43-4.42-10.46-2.63-3.18-6.22-5.39-9.72-7.3-3.49-1.91-7.07-3.63-10.85-5.46-5-2.41-10.16-4.9-15.17-7.88-1.88-1.12-3.68-2.37-5.81-3.9-5.55-4-9.86-8.73-12.47-13.68-.64-1.22-1.22-2.33-1.71-3.51-2.96-7.2-3.12-14.9-3.29-23.06-.04-1.91-.08-3.89-.16-5.84-.11-2.74-.33-6.35-1.04-9.89-2.27-11.34-9.44-20.59-19.2-24.75-4.37-1.86-9.06-2.66-14.02-3.51-3.91-.67-7.96-1.36-11.9-2.62-1.26-.4-2.53-.88-3.77-1.41-10.26-4.43-18.38-12.84-21.73-22.52-5.34-15.43-3.71-18.29,4.1-32.07l.33-.58.26.15-.33.58c-7.75,13.68-9.37,16.52-4.07,31.82,3.32,9.59,11.38,17.95,21.57,22.34,1.23.53,2.49,1,3.74,1.4,3.92,1.25,7.96,1.94,11.86,2.61,4.98.85,9.69,1.66,14.09,3.53,9.84,4.2,17.09,13.53,19.37,24.97.71,3.57.93,7.18,1.05,9.94.08,1.95.12,3.93.16,5.84.17,8.13.33,15.8,3.27,22.95.48,1.18,1.05,2.28,1.69,3.49,2.59,4.91,6.87,9.6,12.38,13.57,2.12,1.53,3.92,2.77,5.79,3.89,5,2.98,10.16,5.46,15.15,7.87,3.79,1.83,7.37,3.55,10.87,5.47,3.52,1.93,7.14,4.15,9.8,7.37,2.54,3.08,4.05,6.65,4.49,10.62.79,7.14-2.7,15.26-9.11,21.19-3.93,3.63-8.37,5.36-12.67,7.03-2.69,1.05-5.23,2.03-7.58,3.44-2.93,1.76-5.91,3.76-7.45,7.17Z" style="fill: #fff;"/>
    <path d="M148.22,149.51l-.23-.18c2.04-2.57,5.15-4.19,7.88-5.62,1.88-.99,3.82-1.78,5.88-2.62,4.12-1.69,8.39-3.44,12.1-6.82,6.45-5.87,9.88-13.96,8.93-21.12-.51-3.83-2.07-7.36-4.66-10.5-2.79-3.39-6.64-5.91-9.67-7.72-3.75-2.24-7.76-4.31-11.63-6.32-4.76-2.46-9.69-5.01-14.4-7.98-1.74-1.09-3.58-2.39-5.79-4.09-5.5-4.21-9.75-9.11-12.29-14.16-.49-.98-1.12-2.27-1.63-3.62-2.63-7-2.66-14.72-2.69-22.18,0-2.36-.02-4.81-.11-7.21-.15-3.97-.5-7.13-1.12-9.96-2.48-11.3-10.4-20.69-20.67-24.51-4.45-1.65-9.12-2.27-14.07-2.92-4.13-.54-8.41-1.1-12.54-2.33-1.28-.38-2.56-.83-3.81-1.35-10.26-4.26-18.38-12.72-21.7-22.62-5.29-15.76-3.92-18.27,3.68-32.18l.4-.74.26.14-.4.74c-7.73,14.14-8.91,16.31-3.66,31.95,3.3,9.82,11.35,18.21,21.53,22.44,1.24.52,2.51.97,3.78,1.34,4.11,1.22,8.37,1.78,12.5,2.32,4.97.65,9.66,1.27,14.14,2.93,10.36,3.85,18.35,13.33,20.85,24.73.62,2.85.98,6.03,1.13,10.01.09,2.41.1,4.85.11,7.22.03,7.77.05,15.12,2.67,22.07.5,1.34,1.13,2.62,1.61,3.59,2.52,5.01,6.74,9.87,12.2,14.06,2.21,1.69,4.04,2.98,5.77,4.07,4.7,2.96,9.62,5.51,14.38,7.97,3.88,2.01,7.9,4.08,11.65,6.33,3.06,1.83,6.93,4.36,9.75,7.79,2.62,3.19,4.21,6.77,4.72,10.65.96,7.26-2.5,15.45-9.03,21.38-3.75,3.41-8.04,5.17-12.19,6.87-2.05.84-3.98,1.63-5.85,2.61-2.71,1.42-5.78,3.02-7.79,5.54Z" style="fill: #fff;"/>
    <path d="M152.02,149.88l-.16-.25c2.03-1.3,4.43-2.33,6.75-3.33.48-.21.96-.41,1.43-.62.94-.41,1.91-.82,2.85-1.21,4.44-1.85,9.02-3.77,12.91-7.24,6.57-5.85,9.96-14.01,8.84-21.3-.57-3.73-2.21-7.28-4.89-10.55-2.28-2.78-5.34-5.36-9.63-8.15-3.97-2.57-8.22-4.91-12.33-7.18-4.56-2.52-9.27-5.12-13.72-8.08-1.88-1.25-3.82-2.69-5.77-4.27-5.53-4.49-9.6-9.42-12.1-14.64-.64-1.33-1.15-2.55-1.55-3.73-2.35-6.86-2.24-14.3-2.13-21.5.04-2.75.09-5.59,0-8.37-.13-3.93-.51-7.11-1.21-10.02-2.69-11.28-11.38-20.81-22.13-24.27-4.54-1.47-9.45-1.92-14.19-2.36-4.33-.4-8.82-.82-13.12-2-1.3-.35-2.59-.79-3.86-1.3-10.24-4.09-18.34-12.59-21.67-22.72-5.24-16.16-4.26-18.02,3.35-32.46l.39-.74.26.14-.39.74c-7.56,14.34-8.53,16.18-3.34,32.23,3.3,10.05,11.34,18.47,21.5,22.53,1.25.5,2.54.93,3.83,1.29,4.28,1.17,8.74,1.59,13.07,1.99,4.76.44,9.67.9,14.25,2.37,10.85,3.5,19.61,13.11,22.33,24.49.7,2.93,1.08,6.13,1.22,10.08.09,2.79.05,5.63,0,8.38-.11,7.17-.22,14.59,2.11,21.4.4,1.16.9,2.37,1.54,3.7,2.48,5.18,6.53,10.07,12.02,14.54,1.94,1.58,3.88,3.01,5.74,4.26,4.44,2.96,9.15,5.56,13.7,8.07,4.11,2.27,8.37,4.62,12.34,7.19,4.32,2.8,7.41,5.41,9.7,8.21,2.71,3.31,4.37,6.9,4.95,10.69,1.13,7.39-2.3,15.65-8.94,21.57-3.93,3.5-8.54,5.43-13,7.29-.94.39-1.9.8-2.84,1.21-.48.21-.96.41-1.44.62-2.31.99-4.7,2.02-6.71,3.3Z" style="fill: #fff;"/>
    <path d="M155.8,150.24l-.06-.29c9.56-2,16.76-5.18,22.01-9.74,6.69-5.8,10.04-14.03,8.76-21.48-1.17-6.79-5.99-13.06-14.71-19.16-4.16-2.91-8.62-5.52-12.93-8.04-4.38-2.56-8.91-5.21-13.13-8.18-10.05-7.06-16.49-14.94-19.13-23.42-2.1-6.75-1.85-13.99-1.6-20.99.23-6.47.46-13.16-1.16-19.46-2.95-11.44-12.22-20.88-23.6-24.04-4.66-1.29-9.59-1.57-14.36-1.84-4.52-.25-9.19-.51-13.63-1.63-11.83-2.98-21.86-12.42-25.55-24.06-5.23-16.52-4.61-17.73,2.99-32.65l.42-.83.26.13-.42.83c-7.55,14.81-8.16,16.02-2.97,32.42,3.65,11.54,13.6,20.9,25.34,23.86,4.42,1.11,9.08,1.37,13.58,1.63,4.79.27,9.73.55,14.42,1.85,11.49,3.19,20.83,12.7,23.81,24.25,1.63,6.34,1.4,13.05,1.17,19.54-.24,6.98-.5,14.19,1.59,20.89,2.62,8.41,9.02,16.24,19.02,23.27,4.21,2.96,8.73,5.61,13.11,8.17,4.32,2.53,8.78,5.14,12.95,8.06,8.79,6.15,13.65,12.48,14.84,19.35,1.31,7.55-2.09,15.89-8.85,21.76-5.29,4.59-12.54,7.8-22.15,9.8Z" style="fill: #fff;"/>
  </g>
</svg>